<?xml version="1.0" standalone="no"?>
<!DOCTYPE svg PUBLIC "-//W3C//DTD SVG 20010904//EN"
 "http://www.w3.org/TR/2001/REC-SVG-20010904/DTD/svg10.dtd">
<svg version="1.0" xmlns="http://www.w3.org/2000/svg"
 width="64.000000pt" height="64.000000pt" viewBox="0 0 64.000000 64.000000"
 preserveAspectRatio="xMidYMid meet">

<g transform="translate(0.000000,64.000000) scale(0.100000,-0.100000)"
fill="#000000" stroke="none">
<path d="M131 563 c1 -89 34 -492 41 -498 19 -19 22 15 14 139 -5 75 -6 140
-2 143 3 4 34 9 69 11 56 4 60 3 43 -10 -10 -8 -16 -20 -13 -25 9 -14 87 -33
137 -33 47 0 128 18 135 31 7 11 -6 195 -15 209 -4 7 -15 8 -31 2 -13 -5 -41
-12 -61 -16 -36 -7 -38 -5 -38 19 0 18 -7 28 -26 36 -43 16 -135 22 -181 11
-37 -8 -42 -7 -46 9 -10 38 -27 19 -26 -28z m213 -14 l38 -11 -6 -45 c-3 -25
-6 -60 -6 -77 l0 -31 -100 0 -100 0 0 40 c0 22 -3 57 -6 77 -6 35 -5 37 27 46
46 14 106 14 153 1z"/>
</g>
</svg>
